<svg width="23" height="23" viewBox="0 0 23 23" fill="none" xmlns="http://www.w3.org/2000/svg">
<path d="M16.8743 0.885087L5.26075 0.964543C2.39846 0.984125 0.0959777 3.23213 0.118 5.9856L0.207355 17.1577C0.229377 19.9112 2.56757 22.1274 5.42985 22.1078L17.0434 22.0284C19.9057 22.0088 22.2082 19.7608 22.1862 17.0073L22.0968 5.83523C22.0748 3.08176 19.7366 0.865504 16.8743 0.885087Z" fill="#FF5500"/>
<path fill-rule="evenodd" clip-rule="evenodd" d="M14.3897 12.55C14.2293 12.466 13.4397 12.0647 13.2918 12.009C13.1439 11.9533 13.0356 11.9233 12.9237 12.0777C12.8119 12.2298 12.4878 12.5748 12.3903 12.6771C12.2929 12.7795 12.1971 12.7896 12.0367 12.7056C11.8763 12.6215 11.3563 12.4407 10.7523 11.8893C10.2819 11.4599 9.97053 10.9372 9.88077 10.777C9.79102 10.6169 9.87885 10.5359 9.96179 10.4597C10.0374 10.3906 10.1299 10.2812 10.2152 10.1932C10.2981 10.1051 10.3295 10.0387 10.3852 9.93669C10.4434 9.83463 10.4181 9.74261 10.3806 9.66248C10.3431 9.58236 10.0395 8.80193 9.91406 8.486C9.78864 8.1677 9.6514 8.21592 9.55555 8.21422C9.45969 8.21251 9.35141 8.19434 9.24327 8.19271C9.13511 8.18872 8.95598 8.22305 8.80238 8.3754C8.64877 8.52775 8.21427 8.89479 8.19095 9.66565C8.16762 10.4365 8.72666 11.1986 8.80615 11.3045C8.88319 11.4127 9.87949 13.0749 11.5142 13.7517C13.1514 14.4284 13.1571 14.218 13.4568 14.2018C13.7565 14.1855 14.4321 13.8499 14.5791 13.4896C14.7261 13.1269 14.7359 12.8148 14.6961 12.7488C14.6562 12.6829 14.5502 12.6387 14.3898 12.5571L14.3897 12.55ZM11.4288 16.2842C10.35 16.2916 9.34492 15.9864 8.50025 15.4603L6.46565 16.103L7.11398 14.2026C6.47079 13.3654 6.08899 12.3325 6.08004 11.2144C6.05751 8.39654 8.42038 6.08957 11.3471 6.06955C14.2739 6.04953 16.6758 8.3239 16.6984 11.1417C16.7209 13.9596 14.358 16.2665 11.4288 16.2866L11.4288 16.2842ZM11.3389 5.04123C7.81747 5.06532 4.98397 7.83178 5.01106 11.2193C5.02033 12.3777 5.36321 13.4604 5.953 14.3808L4.82681 17.6793L8.34937 16.5677C9.26741 17.0484 10.3189 17.3178 11.437 17.3102C14.9609 17.2861 17.7944 14.5196 17.7673 11.1297C17.7402 7.73978 14.8628 5.01476 11.3389 5.03886L11.3389 5.04123Z" fill="white"/>
</svg>
