<svg width="22" height="23" viewBox="0 0 22 23" fill="none" xmlns="http://www.w3.org/2000/svg">
<path fill-rule="evenodd" clip-rule="evenodd" d="M20.4267 17.2933C19.9201 16.9483 17.4275 15.2723 16.9559 15.027C16.4849 14.7761 16.1333 14.6391 15.6856 15.1266C15.2435 15.6147 14.0169 16.687 13.6502 17.0071C13.2779 17.3266 12.952 17.3224 12.4454 16.9773C11.9388 16.6322 10.2632 15.8193 8.44878 13.6959C7.03579 12.0428 6.20107 10.1248 5.96081 9.54021C5.72054 8.95563 6.05102 8.70552 6.36268 8.47052C6.643 8.2607 7.00137 7.91145 7.32293 7.63781C7.63944 7.35799 7.76501 7.1497 8.00201 6.81098C8.2384 6.47786 8.19361 6.15063 8.0936 5.85751C7.99866 5.57057 7.2948 2.75963 6.99998 1.62034C6.69443 0.474309 6.21808 0.590932 5.89643 0.547474C5.58044 0.504582 5.21833 0.411782 4.85763 0.358761C4.49067 0.310777 3.88382 0.363401 3.30641 0.832325C2.72273 1.30629 1.11948 2.42017 0.729333 5.07652C0.339186 7.73287 1.92199 10.5693 2.14259 10.9651C2.36258 11.3665 5.04059 17.472 10.2719 20.4011C15.5038 23.3247 15.6102 22.6048 16.6239 22.6551C17.6375 22.7055 20.0437 21.7907 20.6828 20.5918C21.322 19.3929 21.4785 18.3157 21.3793 18.068C21.2738 17.8253 20.9333 17.6384 20.4267 17.2933Z" fill="#FF5400"/>
</svg>
