<svg width="25" height="20" viewBox="0 0 25 20" fill="none" xmlns="http://www.w3.org/2000/svg">
<path d="M22.5855 0.237911C25.0583 -0.603962 25.1613 0.989583 24.9037 1.89159C24.131 7.05307 22.4618 17.6767 21.9673 18.8794C21.4727 20.0821 20.2157 20.0821 19.649 19.9317C17.1762 18.3282 12.076 15.0308 11.4578 14.67C10.8396 14.3092 10.685 13.317 10.8396 13.0163C13.0033 10.9618 17.5471 6.61209 18.4126 5.64995C19.2781 4.68781 18.3611 4.94839 17.7944 5.19895C15.4246 6.65218 10.2832 9.85931 8.67585 11.062C7.06851 12.2647 5.8424 12.2647 5.43026 12.1143C4.24537 11.9139 1.59738 11.3326 0.484607 10.611C-0.628164 9.88938 0.43309 9.10764 1.10281 8.80697C7.23336 6.3014 20.1127 1.07978 22.5855 0.237911Z" fill="#FF5500"/>
</svg>
