<svg width="53" height="65" viewBox="0 0 53 65" fill="none" xmlns="http://www.w3.org/2000/svg">
<path d="M16.5625 35.75V19.5L26.5 13L36.4375 19.5V35.75H29.8125V26H23.1875V35.75H16.5625ZM26.5 56.3875C33.2354 50.3208 38.2318 44.8088 41.4891 39.8515C44.7464 34.8963 46.375 30.4958 46.375 26.65C46.375 20.7458 44.456 15.9109 40.6179 12.1453C36.782 8.38175 32.076 6.5 26.5 6.5C20.924 6.5 16.2169 8.38175 12.3788 12.1453C8.54294 15.9109 6.625 20.7458 6.625 26.65C6.625 30.4958 8.25365 34.8963 11.5109 39.8515C14.7682 44.8088 19.7646 50.3208 26.5 56.3875ZM26.5 65C17.6115 57.5792 10.9732 50.6859 6.58525 44.3203C2.19508 37.9567 0 32.0667 0 26.65C0 18.525 2.66435 12.0521 7.99306 7.23125C13.3196 2.41042 19.4885 0 26.5 0C33.5115 0 39.6804 2.41042 45.0069 7.23125C50.3356 12.0521 53 18.525 53 26.65C53 32.0667 50.806 37.9567 46.4181 44.3203C42.0279 50.6859 35.3885 57.5792 26.5 65Z" fill="white"/>
</svg>
