<svg width="78" height="62" viewBox="0 0 78 62" fill="none" xmlns="http://www.w3.org/2000/svg">
<path d="M7.09091 62C5.14091 62 3.47218 61.2864 2.08473 59.8592C0.694909 58.4295 0 56.7118 0 54.7059C0 52.7 0.694909 50.9822 2.08473 49.5526C3.47218 48.1254 5.14091 47.4118 7.09091 47.4118H8.02336C8.28809 47.4118 8.56818 47.4725 8.86364 47.5941L24.9955 31C24.8773 30.6961 24.8182 30.4067 24.8182 30.132V29.1765C24.8182 27.1706 25.5131 25.4528 26.9029 24.0232C28.2904 22.596 29.9591 21.8824 31.9091 21.8824C33.8591 21.8824 35.529 22.596 36.9188 24.0232C38.3063 25.4528 39 27.1706 39 29.1765C39 29.298 38.9409 29.9059 38.8227 31L47.8636 40.3C48.1591 40.1784 48.4404 40.1176 48.7075 40.1176H50.5653C50.8324 40.1176 51.1136 40.1784 51.4091 40.3L63.9955 27.3529C63.8773 27.049 63.8182 26.7597 63.8182 26.4849V25.5294C63.8182 23.5235 64.5119 21.8058 65.8994 20.3761C67.2892 18.9489 68.9591 18.2353 70.9091 18.2353C72.8591 18.2353 74.529 18.9489 75.9188 20.3761C77.3063 21.8058 78 23.5235 78 25.5294C78 27.5353 77.3063 29.2518 75.9188 30.6791C74.529 32.1087 72.8591 32.8235 70.9091 32.8235H69.9802C69.7131 32.8235 69.4318 32.7627 69.1364 32.6412L56.55 45.5882C56.6682 45.8922 56.7273 46.1815 56.7273 46.4562V47.4118C56.7273 49.4176 56.0335 51.1354 54.6461 52.5651C53.2563 53.9923 51.5864 54.7059 49.6364 54.7059C47.6864 54.7059 46.0176 53.9923 44.6302 52.5651C43.2404 51.1354 42.5455 49.4176 42.5455 47.4118V46.4562C42.5455 46.1815 42.6045 45.8922 42.7227 45.5882L33.6818 36.2882C33.3864 36.4098 33.1051 36.4706 32.838 36.4706H31.9091C31.7909 36.4706 31.2 36.4098 30.1364 36.2882L14.0045 52.8824C14.1227 53.1863 14.1818 53.4756 14.1818 53.7504V54.7059C14.1818 56.7118 13.4869 58.4295 12.0971 59.8592C10.7096 61.2864 9.04091 62 7.09091 62ZM10.6364 25.4382L8.42045 20.5147L3.63409 18.2353L8.42045 15.9559L10.6364 11.0324L12.8523 15.9559L17.6386 18.2353L12.8523 20.5147L10.6364 25.4382ZM49.6364 21.8824L46.2682 14.4059L39 10.9412L46.2682 7.47647L49.6364 0L53.0045 7.47647L60.2727 10.9412L53.0045 14.4059L49.6364 21.8824Z" fill="white"/>
</svg>
