<svg width="77" height="66" viewBox="0 0 77 66" fill="none" xmlns="http://www.w3.org/2000/svg">
<path d="M28 38C35.732 38 42 31.732 42 24C42 16.268 35.732 10 28 10C20.268 10 14 16.268 14 24C14 31.732 20.268 38 28 38Z" fill="white"/>
<path d="M28.0016 45.1579C18.6561 45.1579 0 49.8126 0 59.0526V66H56.0032V59.0526C56.0032 49.8126 37.3471 45.1579 28.0016 45.1579ZM55.1631 11.6716L49.2828 17.5421C52.223 21.6411 52.223 26.9558 49.2828 31.0547L55.1631 36.9253C62.2335 29.9084 62.2335 19.3137 55.1631 11.6716ZM66.7488 0L61.0435 5.66211C70.739 16.1526 70.739 31.9232 61.0435 42.9695L66.7488 48.6316C80.3996 35.1189 80.4346 14.0684 66.7488 0Z" fill="white"/>
</svg>
