<svg width="76" height="76" viewBox="0 0 76 76" fill="none" xmlns="http://www.w3.org/2000/svg">
<path d="M37.7101 7.06104C20.349 7.06104 6.29028 21.0049 6.29028 38.1856C6.29028 55.3664 20.349 69.3103 37.7101 69.3103C55.1027 69.3103 69.1929 55.3664 69.1929 38.1856C69.1929 21.0049 55.1027 7.06104 37.7101 7.06104ZM37.7416 63.0853C23.8401 63.0853 12.5805 51.9427 12.5805 38.1856C12.5805 24.4286 23.8401 13.286 37.7416 13.286C51.6431 13.286 62.9026 24.4286 62.9026 38.1856C62.9026 51.9427 51.6431 63.0853 37.7416 63.0853Z" fill="white"/>
<path d="M39.3144 22.6235H34.5967V41.2983L51.1086 51.1026L53.4675 47.2742L39.3144 38.964V22.6235Z" fill="white"/>
</svg>
