<svg width="36" height="28" viewBox="0 0 36 28" fill="none" xmlns="http://www.w3.org/2000/svg">
<path d="M32.5231 0.333075C36.084 -0.845547 36.2323 1.38542 35.8614 2.64823C34.7486 9.8743 32.345 24.7474 31.6329 26.4311C30.9207 28.1149 29.1106 28.1149 28.2946 27.9044C24.7337 25.6594 17.3894 21.0431 16.4992 20.538C15.609 20.0329 15.3864 18.6438 15.609 18.2229C18.7247 15.3465 25.2678 9.25693 26.5141 7.90993C27.7604 6.56293 26.4399 6.92774 25.6239 7.27852C22.2114 9.31305 14.8078 13.803 12.4932 15.4868C10.1787 17.1705 8.41306 17.1705 7.81958 16.9601C6.11333 16.6794 2.30022 15.8656 0.697834 14.8554C-0.904556 13.8451 0.62365 12.7507 1.58805 12.3298C10.416 8.82196 28.9622 1.5117 32.5231 0.333075Z" fill="white"/>
</svg>
