<svg width="37" height="35" viewBox="0 0 37 35" fill="none" xmlns="http://www.w3.org/2000/svg">
<path d="M27.279 0.0861638L8.41718 0.174463C3.7685 0.196225 0.0392754 3.80021 0.087724 8.22419L0.284302 26.1743C0.332751 30.5983 4.14053 34.167 8.7892 34.1452L27.651 34.0569C32.2997 34.0351 36.0289 30.4312 35.9805 26.0072L35.7839 8.05708C35.7354 3.6331 31.9277 0.0644016 27.279 0.0861638Z" fill="white"/>
<path fill-rule="evenodd" clip-rule="evenodd" d="M23.298 18.8188C23.0371 18.6833 21.7528 18.036 21.5124 17.946C21.2719 17.8559 21.0958 17.8074 20.9149 18.0551C20.734 18.299 20.2092 18.8523 20.0513 19.0163C19.8935 19.1804 19.738 19.1963 19.4771 19.0608C19.2162 18.9253 18.3708 18.633 17.3872 17.745C16.6213 17.0535 16.1132 16.2126 15.9667 15.955C15.8202 15.6974 15.9625 15.5676 16.0968 15.4454C16.2194 15.3347 16.3691 15.1593 16.5072 15.0181C16.6414 14.8769 16.6921 14.7703 16.7821 14.6066C16.8761 14.4428 16.8346 14.2949 16.7733 14.166C16.712 14.0372 16.2154 12.7823 16.0102 12.2742C15.8051 11.7624 15.5824 11.8394 15.4267 11.8364C15.271 11.8333 15.0951 11.8037 14.9194 11.8008C14.7437 11.794 14.453 11.8485 14.2042 12.0928C13.9554 12.337 13.2514 12.9253 13.2171 14.1637C13.1828 15.4021 14.0942 16.6285 14.2238 16.7988C14.3494 16.9729 15.9752 19.6469 18.6334 20.7398C21.2955 21.8327 21.3038 21.4946 21.7904 21.4695C22.2771 21.4444 23.3728 20.9075 23.6099 20.3291C23.847 19.7468 23.8615 19.2454 23.7965 19.1393C23.7314 19.0333 23.559 18.9619 23.2982 18.8302L23.298 18.8188ZM18.5063 24.8084C16.7542 24.8166 15.1204 24.3229 13.7461 23.4747L10.4447 24.5005L11.4889 21.4493C10.4404 20.1021 9.81553 18.4413 9.79586 16.6448C9.74628 12.1175 13.5733 8.41897 18.3266 8.39672C23.0799 8.37446 26.9915 12.0367 27.0411 16.5641C27.0906 21.0914 23.2636 24.7899 18.5063 24.8122L18.5063 24.8084ZM18.3085 6.74454C12.5893 6.77131 8.00012 11.2064 8.05972 16.6491C8.0801 18.5102 8.64197 20.251 9.60411 21.7317L7.79022 27.0274L13.5062 25.2534C14.9994 26.0289 16.7084 26.4653 18.5244 26.4568C24.2475 26.43 28.8367 21.9949 28.7771 16.5484C28.7174 11.1019 24.0316 6.71394 18.3084 6.74074L18.3085 6.74454Z" fill="#2C2B2A"/>
</svg>
